<?xml version="1.0" encoding="UTF-8"?>
<svg version="1.1" xmlns="http://www.w3.org/2000/svg" width="2880" height="975">
<path d="M0 0 C1.04913574 0.19335938 2.09827148 0.38671875 3.17919922 0.5859375 C46.30551279 8.73698058 85.14326071 25.83175729 118 55 C118.63550781 55.51691406 119.27101563 56.03382813 119.92578125 56.56640625 C121 58 121 58 120.80664062 59.70825195 C119.70227051 62.84587975 118.0037618 65.32768686 116.16796875 68.1015625 C115.58590416 68.98627228 115.58590416 68.98627228 114.99208069 69.88885498 C113.72955534 71.80471809 112.45890985 73.71502357 111.1875 75.625 C110.31636369 76.94067433 109.44559687 78.25659338 108.57519531 79.57275391 C106.84830032 82.18250719 105.1181614 84.7900711 103.38623047 87.39648438 C101.34302448 90.47551814 99.3243854 93.56972075 97.31640625 96.671875 C96.29428628 98.23959341 95.27215228 99.80730266 94.25 101.375 C93.81067139 102.06158691 93.37134277 102.74817383 92.91870117 103.45556641 C87.26704328 112.04695007 81.07133309 117.85605215 71 120.53125 C59.98684248 122.4851973 50.71093088 117.27376384 41.48046875 111.98828125 C28.16389513 104.36573758 14.77317221 97.1844908 0.0625 92.625 C-0.6500293 92.39852783 -1.36255859 92.17205566 -2.09667969 91.9387207 C-16.97525971 87.62963261 -32.51331591 86.47640255 -47.92724609 86.55395508 C-50.50048169 86.5625016 -53.0715099 86.5334625 -55.64453125 86.50195312 C-88.57472623 86.36326184 -119.17849432 98.09695692 -143.0234375 120.97265625 C-170.89530575 148.7265003 -181.91482789 189.92014231 -182.19042969 228.28271484 C-182.15056724 272.05832203 -172.51650149 315.71157581 -141 348 C-137.48606903 351.22848559 -133.82868413 354.15519211 -130 357 C-129.23558594 357.59039063 -128.47117187 358.18078125 -127.68359375 358.7890625 C-114.8506097 368.29980195 -100.37979305 374.88624632 -85 379 C-83.84927002 379.31541748 -83.84927002 379.31541748 -82.67529297 379.63720703 C-49.13024622 388.37815897 -15.09288958 383.08515019 16.88720703 371.67089844 C19 371 19 371 21 371 C21.07812502 362.04542719 21.10718388 353.09238229 21.07515812 344.13752174 C21.06179206 339.9783697 21.06475484 335.82061675 21.10620117 331.66162109 C21.14564974 327.64086017 21.14068184 323.62229409 21.10607719 319.60151291 C21.10051704 318.07465618 21.11044107 316.54765506 21.13676643 315.02101517 C21.26183202 307.18693086 21.06000914 301.27409204 15.58959961 295.17138672 C14.08110407 293.75776793 12.5538202 292.36364206 11 291 C9.48170209 289.18179139 7.97690348 287.35199007 6.5 285.5 C2.88850866 281.03579543 -0.88660694 276.76997886 -4.75390625 272.52734375 C-7.06187598 269.93037607 -9.25555863 267.26595987 -11.4375 264.5625 C-14.51336588 260.75912497 -17.68753166 257.09917348 -21 253.5 C-25.10516751 249.0395166 -28.95697975 244.43154473 -32.7578125 239.7109375 C-35.75928071 236.08198464 -38.93826963 232.63222281 -42.15234375 229.19140625 C-44 227 -44 227 -46 223 C8.12 223 62.24 223 118 223 C118.60454551 271.74875894 118.60454551 271.74875894 118.73242188 292.18359375 C118.8214161 306.29168518 118.92600653 320.3984325 119.1315918 334.50537109 C119.28125315 344.77980963 119.37790725 355.05315758 119.41132742 365.32865584 C119.43086093 370.7685771 119.47664311 376.20537897 119.58595085 381.64429855 C119.68810052 386.76876842 119.71911639 391.88884897 119.69661522 397.01424026 C119.70072817 398.8905249 119.73039338 400.76696242 119.78808212 402.6423645 C120.19111521 416.42548668 120.19111521 416.42548668 116.53072667 420.72636461 C112.9648564 423.81586006 109.03033952 426.04947598 104.80280411 428.10793805 C102.3456268 429.32379637 100.05935919 430.77648791 97.75 432.25 C70.11420609 448.4724365 40.52932038 458.52310072 9 464 C8.11876465 464.16371094 7.2375293 464.32742188 6.32958984 464.49609375 C-24.89342986 470.10661595 -60.8204236 469.64123919 -92 464 C-92.99950684 463.82307617 -93.99901367 463.64615234 -95.02880859 463.46386719 C-102.0706617 462.18272565 -109.04311929 460.68061504 -116 459 C-116.88993652 458.78504883 -117.77987305 458.57009766 -118.69677734 458.34863281 C-176.64888038 443.93868785 -229.21222701 406.93078369 -260.12548828 355.72143555 C-277.99173811 325.46344664 -288.16668204 292.83662039 -292 258 C-292.19916016 256.20949219 -292.19916016 256.20949219 -292.40234375 254.3828125 C-297.88362228 192.96245855 -282.32240345 128.58987985 -243.375 80.125 C-232.00856025 66.61852008 -220.11198769 54.58782555 -206 44 C-205.43796875 43.57187012 -204.8759375 43.14374023 -204.296875 42.70263672 C-194.74061505 35.44892188 -184.63684599 29.52865502 -174 24 C-173.26716797 23.61457031 -172.53433594 23.22914063 -171.77929688 22.83203125 C-149.62192818 11.31098595 -125.49384726 4.44803522 -101 0 C-100.0409375 -0.17789063 -99.081875 -0.35578125 -98.09375 -0.5390625 C-67.04549383 -5.97250733 -30.96141049 -5.94355715 0 0 Z " fill="#3C85C8" transform="translate(1001,256)"/>
<path d="M0 0 C36.3 0 72.6 0 110 0 C112.70867766 5.41735532 115.12290646 10.61177104 117.22265625 16.24609375 C117.51991104 17.03235138 117.81716583 17.81860901 118.12342834 18.62869263 C118.76757132 20.33327209 119.40990166 22.03853741 120.05059814 23.74441528 C121.82473596 28.46612166 123.6142455 33.18200407 125.40234375 37.8984375 C125.77806519 38.8903157 126.15378662 39.88219391 126.54089355 40.90412903 C130.6779115 51.81265405 134.89826925 62.68849184 139.125 73.5625 C140.73207917 77.69909902 142.33879057 81.83584078 143.9453125 85.97265625 C144.35339645 87.02337814 144.76148041 88.07410004 145.18193054 89.15666199 C150.14085665 101.93021727 155.06952478 114.71544308 160 127.5 C166.81658477 145.17319235 173.64662063 162.8410433 180.5 180.5 C190.09942857 205.23627979 199.65251805 229.99036585 209.20166016 254.74609375 C213.34219309 265.47986069 217.48519066 276.21267635 221.62802124 286.94555664 C223.91878357 292.88033144 226.2093835 298.81516891 228.5 304.75 C229.41666589 307.1250003 230.33333256 309.5000003 231.25 311.875 C236.74999985 326.12499961 236.74999985 326.12499961 238.12481689 329.68702698 C239.04209267 332.0636042 239.95936969 334.44018094 240.87664795 336.8167572 C243.15900541 342.7301218 245.44134172 348.64349455 247.72363281 354.55688477 C251.95930006 365.53138502 256.19515957 376.50581095 260.4317627 387.47994995 C262.15762187 391.95047505 263.8833757 396.42104082 265.60910797 400.89161491 C266.77366057 403.90840846 267.93828789 406.92517312 269.10302734 409.94189453 C271.64002971 416.51285314 274.17552696 423.08438932 276.7097168 429.65643311 C277.85134494 432.6147837 278.99462121 435.57249171 280.13862228 438.52992535 C281.30720685 441.55201945 282.47369618 444.57492251 283.640625 447.59765625 C284.07808044 448.72699081 284.51553589 449.85632538 284.96624756 451.0198822 C285.36442688 452.05238602 285.7626062 453.08488983 286.17285156 454.14868164 C286.52655823 455.06363907 286.88026489 455.9785965 287.24468994 456.92127991 C288 459 288 459 288 460 C276.06435104 460.09294224 264.12878909 460.16388772 252.19285107 460.20724869 C246.64967698 460.22806652 241.10675166 460.25627779 235.5637207 460.30175781 C230.20798125 460.34542293 224.85248012 460.3691807 219.49657631 460.37950897 C217.45976323 460.38686336 215.42296225 460.40122426 213.38625145 460.42292023 C188.14729957 460.6809286 188.14729957 460.6809286 179.1875 452.375 C178.52105469 451.78460937 177.85460938 451.19421875 177.16796875 450.5859375 C170.03025176 442.07212011 166.68276069 432.19084274 163.26953125 421.80859375 C162.74824098 420.25226276 162.22589729 418.69628425 161.70256042 417.14064026 C160.33700613 413.07222066 158.98565756 408.99922447 157.63739014 404.92504883 C156.26755164 400.79414703 154.88417024 396.66778831 153.50195312 392.54101562 C151.06788658 385.26765087 148.64545877 377.99050282 146.23152161 370.71043396 C144.82486632 366.47234222 143.41209422 362.23628265 142 358 C55.87 357.505 55.87 357.505 -32 357 C-32.66 359.97 -33.32 362.94 -34 366 C-34.48315693 367.65168116 -34.99460776 369.29578996 -35.55297852 370.92358398 C-35.84442245 371.78081558 -36.13586639 372.63804718 -36.43614197 373.52125549 C-36.74725418 374.42045212 -37.05836639 375.31964874 -37.37890625 376.24609375 C-37.70705826 377.20720566 -38.03521027 378.16831757 -38.37330627 379.15855408 C-39.43134893 382.25328401 -40.49641004 385.34553386 -41.5625 388.4375 C-42.2936853 390.5651885 -43.02464156 392.69295571 -43.75537109 394.82080078 C-44.84003766 397.9785068 -45.92527428 401.13600804 -47.01281738 404.29272461 C-48.99057106 410.03752954 -50.93973261 415.79025738 -52.84765625 421.55859375 C-53.24331787 422.74203369 -53.63897949 423.92547363 -54.04663086 425.14477539 C-54.73595286 427.20962018 -55.4160784 429.27757271 -56.08422852 431.34936523 C-58.80249822 439.40357752 -62.81642709 446.55758501 -69.1875 452.3125 C-70.16783203 453.23482422 -70.16783203 453.23482422 -71.16796875 454.17578125 C-82.15890048 461.25545728 -93.61919103 460.52613292 -106.19921875 460.390625 C-108.24615422 460.38315292 -110.2930969 460.37746457 -112.34004211 460.37347412 C-117.69457183 460.35829393 -123.04865882 460.31907858 -128.40301514 460.2746582 C-133.87994398 460.23354027 -139.35694525 460.21542799 -144.83398438 460.1953125 C-155.55618275 460.15257628 -166.27805438 460.08441836 -177 460 C-175.09735523 453.36310485 -172.93046913 446.90180188 -170.4375 440.46484375 C-170.09434753 439.5702092 -169.75119507 438.67557465 -169.39764404 437.75382996 C-168.26871694 434.81364663 -167.13445162 431.87555568 -166 428.9375 C-165.19278988 426.83912378 -164.38582879 424.74065176 -163.57910156 422.64208984 C-157.21229179 406.09288992 -150.80216749 389.56035769 -144.3840332 373.03100586 C-138.2997867 357.36121504 -132.23803713 341.6828366 -126.1875 326 C-125.49944275 324.21665253 -125.49944275 324.21665253 -124.79748535 322.39727783 C-122.46420904 316.34957517 -120.13120578 310.30176722 -117.79833984 304.25390625 C-112.74393388 291.15104811 -107.68608179 278.04951971 -102.62884521 264.94775391 C-101.25644792 261.39226102 -99.88407402 257.83675911 -98.51171875 254.28125 C-98.058573 253.10723633 -97.60542725 251.93322266 -97.1385498 250.72363281 C-94.35761858 243.51843673 -91.57751009 236.31292375 -88.79800415 229.10717773 C-79.33186875 204.5667327 -69.85516428 180.03053113 -60.3394165 155.50927734 C-53.93826554 139.01280224 -47.55758534 122.5084949 -41.1875 106 C-40.50587799 104.23373764 -40.50587799 104.23373764 -39.81048584 102.43179321 C-35.29004606 90.71785082 -30.77128247 79.00326473 -26.25732899 67.28682137 C-24.26638979 62.11917138 -22.2746611 56.9518261 -20.28245068 51.78466606 C-19.10322346 48.72594123 -17.92462134 45.66697785 -16.74691772 42.60766602 C-15.43920396 39.21065411 -14.12990117 35.81425822 -12.8203125 32.41796875 C-12.45026596 31.455457 -12.08021942 30.49294525 -11.69895935 29.50126648 C-7.88905336 19.62959214 -3.93095718 9.82739294 0 0 Z M54 98 C53.81002441 98.72662842 53.62004883 99.45325684 53.42431641 100.2019043 C48.97604836 117.08288354 43.93015337 133.57487397 38.10113525 150.03807068 C35.29759822 157.96262556 32.58773909 165.91900464 29.875 173.875 C29.59880829 174.68415863 29.32261658 175.49331726 29.03805542 176.32699585 C23.01906532 193.96219501 17.03791741 211.61028833 11.06329346 229.26055908 C9.98801978 232.43705148 8.91193987 235.61326889 7.83514404 238.78924561 C6.54682132 242.58941153 5.26045468 246.39023458 3.9754467 250.1915226 C3.49997595 251.59712257 3.02389684 253.00251695 2.54712105 254.40767479 C2.21098447 255.39856322 2.21098447 255.39856322 1.86805725 256.4094696 C1.6744867 256.97946025 1.48091616 257.54945089 1.28147984 258.13671398 C-1.60740424 266.7294541 -4.29322221 275.33831107 -7 284 C33.92 284 74.84 284 117 284 C115.29177737 276.30327243 115.29177737 276.30327243 113.06738281 268.84570312 C112.50394417 267.15096107 112.50394417 267.15096107 111.92912292 265.42198181 C111.32225395 263.61981956 111.32225395 263.61981956 110.703125 261.78125 C110.27313902 260.49394192 109.84352657 259.20650902 109.41426086 257.91896057 C108.26886836 254.48755392 107.11771495 251.05810741 105.96513748 247.62910843 C105.00479083 244.76996286 104.0475934 241.90976697 103.09032917 239.0495882 C94.33669482 212.89755669 85.57157573 186.74652456 76.38671875 160.7421875 C75.47446091 158.15750513 74.56227096 155.57279886 73.65023804 152.98803711 C73.05587587 151.30410163 72.46101682 149.62034144 71.8656311 147.93676758 C67.24995475 134.86604293 62.97060781 121.71619482 59.01855469 108.42944336 C58.64633789 107.19589111 58.27412109 105.96233887 57.890625 104.69140625 C57.41157715 103.07020874 57.41157715 103.07020874 56.92285156 101.41625977 C56.2526022 98.84463689 56.2526022 98.84463689 54 98 Z " fill="#529AD3" transform="translate(1308,258)"/>
<path d="M0 0 C36.3 0 72.6 0 110 0 C112.48790881 5.59779483 114.90734342 11.14299653 117.1171875 16.84375 C117.55096962 17.95538513 117.55096962 17.95538513 117.99351501 19.08947754 C118.95624619 21.55878727 119.91570081 24.02935515 120.875 26.5 C121.5724226 28.2917006 122.26993511 30.0833662 122.9675293 31.875 C129.89864585 49.6903458 136.77444081 67.52715416 143.65185547 85.36328125 C149.58455939 100.74869038 155.53350538 116.12766538 161.5 131.5 C171.09963521 156.23619925 180.65251827 180.99036641 190.20166016 205.74609375 C194.34219309 216.47986069 198.48519066 227.21267635 202.62802124 237.94555664 C204.91878357 243.88033144 207.2093835 249.81516891 209.5 255.75 C210.41666589 258.1250003 211.33333256 260.5000003 212.25 262.875 C214.08333333 267.625 215.91666667 272.375 217.75 277.125 C218.20373489 278.30058472 218.65746979 279.47616943 219.12495422 280.68737793 C220.04177658 283.06278363 220.95859584 285.43819053 221.87541199 287.81359863 C224.16467107 293.74490122 226.45398385 299.67618307 228.7434082 305.60742188 C232.89714123 316.36870515 237.05046042 327.1301473 241.20181274 337.89234924 C250.53240097 362.08138447 259.87207986 386.26677013 269.25 410.4375 C280.12133614 438.46173363 280.12133614 438.46173363 284.1875 449 C284.59194336 450.04470459 284.99638672 451.08940918 285.41308594 452.16577148 C285.76532227 453.08044189 286.11755859 453.9951123 286.48046875 454.9375 C286.77848389 455.70964844 287.07649902 456.48179687 287.38354492 457.27734375 C288 459 288 459 288 460 C276.06435104 460.09294224 264.12878909 460.16388772 252.19285107 460.20724869 C246.64967698 460.22806652 241.10675166 460.25627779 235.5637207 460.30175781 C230.20798125 460.34542293 224.85248012 460.3691807 219.49657631 460.37950897 C217.45976323 460.38686336 215.42296225 460.40122426 213.38625145 460.42292023 C188.14729957 460.6809286 188.14729957 460.6809286 179.1875 452.375 C178.52105469 451.78460937 177.85460937 451.19421875 177.16796875 450.5859375 C171.4896025 443.81282316 168.00942426 436.20835257 165.30078125 427.8671875 C164.98348557 426.92357864 164.66618988 425.97996979 164.33927917 425.00776672 C163.31937511 421.96705151 162.31582449 418.92122126 161.3125 415.875 C160.610586 413.77213771 159.9074515 411.66968243 159.203125 409.56762695 C157.79597374 405.36600844 156.39383327 401.16276695 154.99462891 396.95849609 C153.20047608 391.58165009 151.36843555 386.21881237 149.51171875 380.86328125 C149.25006424 380.10813232 148.98840973 379.3529834 148.71882629 378.57495117 C147.74370907 375.76379402 146.7671082 372.95316521 145.78701782 370.14373779 C145.13662422 368.27773204 144.49006832 366.41038995 143.84375 364.54296875 C143.30524414 362.9964563 143.30524414 362.9964563 142.75585938 361.41870117 C142 359 142 359 142 357 C84.58 357 27.16 357 -32 357 C-32.99 360.63 -33.98 364.26 -35 368 C-35.63707537 370.07169719 -36.29127385 372.13833022 -36.97363281 374.19555664 C-37.33120667 375.27781021 -37.68878052 376.36006378 -38.05718994 377.47511292 C-38.6244278 379.17545937 -38.6244278 379.17545937 -39.203125 380.91015625 C-39.6040033 382.11707626 -40.00488159 383.32399628 -40.41790771 384.56748962 C-41.26357708 387.1102117 -42.11049805 389.6524756 -42.95947266 392.1940918 C-43.81610254 394.75936938 -44.66928431 397.32574872 -45.51904297 399.89331055 C-53.56742041 424.20903182 -53.56742041 424.20903182 -57.83203125 435.4453125 C-58.09119324 436.14402969 -58.35035522 436.84274689 -58.61737061 437.56263733 C-62.13089142 446.56608726 -69.10691291 454.06210166 -78 458 C-83.54976208 459.8973882 -88.39960265 460.27733884 -94.23999023 460.22705078 C-95.58751625 460.22748886 -95.58751625 460.22748886 -96.96226501 460.22793579 C-99.91114189 460.22655016 -102.85976139 460.21102517 -105.80859375 460.1953125 C-107.86125043 460.19157964 -109.91390889 460.18873396 -111.96656799 460.18673706 C-117.35388153 460.17912208 -122.74108623 460.15949196 -128.12835693 460.1373291 C-133.63178027 460.11682462 -139.1352213 460.10772551 -144.63867188 460.09765625 C-155.42582891 460.07624403 -166.21290539 460.04213392 -177 460 C-176.42256438 456.82856911 -175.69325366 453.90275602 -174.53564453 450.89550781 C-174.08600845 449.71881027 -174.08600845 449.71881027 -173.62728882 448.51834106 C-173.29911163 447.67181976 -172.97093445 446.82529846 -172.6328125 445.953125 C-172.28683014 445.05141571 -171.94084778 444.14970642 -171.5843811 443.22067261 C-170.4351949 440.22891607 -169.2801646 437.23945276 -168.125 434.25 C-167.30863961 432.1288511 -166.49256397 430.00759259 -165.67675781 427.88623047 C-159.27643373 411.25650019 -152.83422547 394.64285847 -146.38452148 378.03222656 C-140.30008878 362.36203792 -134.23819487 346.68324545 -128.1875 331 C-127.49944275 329.21665253 -127.49944275 329.21665253 -126.79748535 327.39727783 C-124.46420904 321.34957517 -122.13120578 315.30176722 -119.79833984 309.25390625 C-114.74393388 296.15104811 -109.68608179 283.04951971 -104.62884521 269.94775391 C-103.25644792 266.39226102 -101.88407402 262.83675911 -100.51171875 259.28125 C-100.058573 258.10723633 -99.60542725 256.93322266 -99.1385498 255.72363281 C-96.35761858 248.51843673 -93.57751009 241.31292375 -90.79800415 234.10717773 C-81.33186875 209.5667327 -71.85516428 185.03053113 -62.3394165 160.50927734 C-55.93826547 144.01280207 -49.557663 127.50846504 -43.1875 111 C-42.50488098 109.23124512 -42.50488098 109.23124512 -41.80847168 107.42675781 C-37.30196635 95.7496342 -32.79711542 84.07187652 -28.29918003 72.39144897 C-26.32899735 67.27521486 -24.35783504 62.15935885 -22.38607693 57.04373169 C-21.22242106 54.02445263 -20.05953713 51.00487992 -18.89779663 47.98486328 C-17.60521039 44.62475699 -16.31058975 41.26544022 -15.015625 37.90625 C-14.65590103 36.96954468 -14.29617706 36.03283936 -13.92555237 35.06774902 C-9.39635708 23.33218829 -4.672842 11.682105 0 0 Z M54 98 C53.8047876 98.74233887 53.6095752 99.48467773 53.40844727 100.24951172 C49.02089591 116.82018264 44.10164242 133.02468659 38.34716797 149.18017578 C35.63928585 156.82437734 33.05182136 164.51094784 30.4375 172.1875 C29.84042715 173.93859038 29.24325809 175.68964795 28.64599609 177.44067383 C27.40534004 181.07814416 26.16516439 184.71577777 24.92529297 188.35351562 C23.29743356 193.12884665 21.66717058 197.90335374 20.03639221 202.6776886 C12.96280147 223.38963921 5.92930923 244.11428047 -1 264.875 C-1.46164551 266.25605423 -1.46164551 266.25605423 -1.93261719 267.66500854 C-2.7901453 270.23182773 -3.64551158 272.79935505 -4.5 275.3671875 C-4.75539551 276.13139511 -5.01079102 276.89560272 -5.27392578 277.68296814 C-6.47832335 280.77758978 -6.47832335 280.77758978 -7 284 C33.92 284 74.84 284 117 284 C115.49564999 276.99537983 115.49564999 276.99537983 113.52636719 270.22265625 C113.25083008 269.39308914 112.97529297 268.56352203 112.69140625 267.70881653 C112.24861328 266.39888985 112.24861328 266.39888985 111.796875 265.0625 C111.48266602 264.12133835 111.16845703 263.1801767 110.84472656 262.210495 C109.81773631 259.13877229 108.78406224 256.06934851 107.75 253 C107.02741792 250.8448922 106.30509056 248.68969898 105.58300781 246.53442383 C99.61741221 228.75006899 93.5760512 210.99154018 87.48600769 193.24945068 C85.55233991 187.61540385 83.62778844 181.97830357 81.70703125 176.33984375 C80.65955342 173.26799023 79.61126725 170.19641353 78.5625 167.125 C78.31079041 166.3874649 78.05908081 165.64992981 77.79974365 164.89004517 C74.86964372 156.31415165 71.83601836 147.79358121 68.59130859 139.33105469 C64.99912061 129.68597503 62.2400479 119.73309831 59.37451172 109.85302734 C58.96192301 108.45149476 58.54932575 107.0499647 58.13671875 105.6484375 C57.59084106 103.76390869 57.59084106 103.76390869 57.03393555 101.84130859 C56.32328937 98.87515328 56.32328937 98.87515328 54 98 Z " fill="#2770BE" transform="translate(427,258)"/>
<path d="M0 0 C1.21538405 0.00138269 1.21538405 0.00138269 2.45532131 0.00279331 C3.38225292 0.00141865 4.30918453 0.00004398 5.26420498 -0.00137234 C6.80168392 0.00402058 6.80168392 0.00402058 8.37022305 0.00952244 C9.97978123 0.0093034 9.97978123 0.0093034 11.62185574 0.00907993 C15.18765656 0.00977959 18.75340589 0.01757445 22.31919765 0.02539158 C24.78399534 0.02725557 27.24879339 0.02867956 29.71359158 0.0296793 C36.21558045 0.03350596 42.71754716 0.0433375 49.21952724 0.05438328 C55.84844957 0.06513035 62.47737833 0.06917624 69.10630703 0.0742197 C82.12389464 0.08495964 95.14146685 0.10184686 108.1590414 0.12304783 C118.89354643 26.88097443 118.89354643 26.88097443 123.28013515 38.31054783 C123.70234844 39.4063718 124.12456173 40.50219578 124.55956936 41.63122654 C125.44953009 43.94146951 126.33880619 46.25197632 127.22740078 48.56274509 C129.38184594 54.16514769 131.54071948 59.76584341 133.6992979 65.3666544 C134.43502136 67.27575896 135.17056041 69.18493451 135.9060812 71.09411716 C140.47206707 82.94421855 145.06326601 94.78447501 149.6590414 106.62304783 C159.25909078 131.35908561 168.81156011 156.11341538 178.36070156 180.86914158 C181.12987754 188.04785264 183.90013707 195.22614517 186.67076015 202.40429783 C187.35047878 204.16531834 187.35047878 204.16531834 188.0439291 205.96191502 C189.41561453 209.51563316 190.78732328 213.0693423 192.1590414 216.62304783 C197.22738832 229.75359714 202.2956838 242.88416565 207.36103725 256.01587009 C216.82613993 280.55363786 226.3011419 305.08742614 235.81660366 329.60571384 C243.20947924 348.65593448 250.57154324 367.71797639 257.91929531 386.78564548 C262.51468305 398.70689247 267.1275501 410.62090846 271.7762289 422.52148533 C272.67084075 424.81507369 273.56537365 427.10869284 274.45982265 429.4023447 C276.14191993 433.71568208 277.8303834 438.02645376 279.52232265 442.33593845 C280.27388769 444.26226817 281.0252046 446.18869473 281.7762289 448.11523533 C282.12192928 448.99045841 282.46762966 449.8656815 282.82380581 450.76742649 C283.13407711 451.56653446 283.44434841 452.36564243 283.76402187 453.1889658 C284.03519833 453.88086002 284.30637478 454.57275425 284.5857687 455.28561497 C285.1590414 457.12304783 285.1590414 457.12304783 285.1590414 460.12304783 C273.353777 460.21599561 261.5486006 460.28693832 249.7430439 460.33029652 C244.2604025 460.35111316 238.77801267 460.3793222 233.29551601 460.42480564 C227.99813098 460.46847509 222.70098694 460.49222942 217.40343571 460.5025568 C215.3889509 460.50991042 213.3744783 460.5242698 211.36009693 460.54596806 C198.00672476 460.68400053 186.53277247 460.75897446 176.10826015 451.29492283 C171.02392688 445.62981401 167.34085011 440.17830033 164.89732265 432.95898533 C164.47269489 431.75802723 164.47269489 431.75802723 164.03948879 430.53280735 C163.05967567 427.73593575 162.10694402 424.93089216 161.1590414 422.12304783 C160.78938259 421.03318577 160.41972378 419.94332371 160.03886318 418.82043552 C157.32129383 410.78704086 154.64784714 402.73924607 151.98728848 394.68682957 C150.48888607 390.15294194 148.9872226 385.62013554 147.48358059 381.08798313 C146.68835154 378.69012263 145.89472698 376.29172925 145.10293484 373.89273167 C144.74528545 372.8132526 144.38763607 371.73377354 144.01914883 370.62158298 C143.70717052 369.67739506 143.39519222 368.73320713 143.07376003 367.76040745 C142.45446713 365.97483312 141.77499695 364.20920525 141.04278469 362.46688938 C140.1590414 360.12304783 140.1590414 360.12304783 140.1590414 357.12304783 C82.7390414 357.45304783 25.3190414 357.78304783 -33.8409586 358.12304783 C-41.1009586 379.90304783 -48.3609586 401.68304783 -55.8409586 424.12304783 C-66.47036786 451.45581451 -66.47036786 451.45581451 -80.8409586 458.12304783 C-86.03243499 460.25241974 -90.54544216 460.39684968 -96.05922031 460.35009861 C-96.96717854 460.35039066 -97.87513676 460.35068272 -98.81060886 460.35098362 C-101.79738677 460.34959562 -104.78391202 460.33405931 -107.7706461 460.31836033 C-109.84715228 460.31462832 -111.92366023 460.31178223 -114.0001688 460.30978489 C-119.4549 460.30216326 -124.90952402 460.28252734 -130.36421299 460.26037693 C-135.93457178 460.23988686 -141.50494795 460.23077641 -147.0753336 460.22070408 C-157.99725558 460.1992801 -168.91909816 460.16516187 -179.8409586 460.12304783 C-173.32094266 442.7195674 -173.32094266 442.7195674 -170.42298985 435.09570408 C-170.12856495 434.32076603 -169.83414005 433.54582798 -169.53079319 432.74740696 C-168.57244335 430.22649666 -167.61314491 427.70594963 -166.6534586 425.18554783 C-166.31292454 424.29110966 -165.97239048 423.39667149 -165.62153721 422.47512913 C-159.25434086 405.76037066 -152.80160092 389.07943071 -146.32582188 372.40649509 C-140.20720349 356.65284366 -134.11133925 340.89053245 -128.0284586 325.12304783 C-127.56993504 323.9346027 -127.11141148 322.74615757 -126.63899326 321.52169895 C-124.30553634 315.47353756 -121.97234022 309.42527562 -119.63929844 303.37695408 C-115.49876551 292.64318713 -111.35576794 281.91037148 -107.21293736 271.17749119 C-104.92217502 265.24271639 -102.63157509 259.30787891 -100.3409586 253.37304783 C-99.42429271 250.99804753 -98.50762604 248.62304753 -97.5909586 246.24804783 C-96.9103336 244.48461033 -96.9103336 244.48461033 -96.2159586 242.68554783 C-92.0909586 231.99804783 -92.0909586 231.99804783 -90.71600437 228.4356699 C-89.79918201 226.0602642 -88.88236276 223.6848573 -87.96554661 221.3094492 C-85.67628752 215.37814661 -83.38697474 209.44686475 -81.09755039 203.51562595 C-76.94375648 192.75418494 -72.79037758 181.99258461 -68.63896275 171.23022556 C-59.17787628 146.7028696 -49.70713083 122.17939832 -40.1954813 97.6716013 C-32.0932172 76.79406004 -24.0303328 55.90139427 -15.97279453 35.00656223 C-14.31141676 30.69977481 -12.64811549 26.39373139 -10.98475742 22.08770847 C-9.88142927 19.22794548 -8.78176121 16.3667984 -7.68275547 13.50537205 C-7.04287712 11.8453417 -6.40290969 10.18534569 -5.7628336 8.52539158 C-5.4766013 7.77697498 -5.190369 7.02855839 -4.89546299 6.2574625 C-2.54215283 0.16991495 -2.54215283 0.16991495 0 0 Z M52.1590414 97.12304783 C51.93466396 97.95811863 51.71028652 98.79318943 51.47910976 99.65356541 C46.25717402 118.90644579 40.34959478 137.79806871 33.68101406 156.59716892 C27.26686456 174.69219825 21.1072576 192.86967663 14.9715414 211.06054783 C14.44524065 212.62035393 13.91893452 214.18015822 13.39262295 215.73996067 C10.41025627 224.58006536 7.4323506 233.42166602 4.45744228 242.26428318 C3.27604658 245.77578183 2.0933949 249.28685648 0.91050625 252.79785252 C-0.5905233 257.25445663 -2.08841387 261.71209591 -3.58207798 266.17117405 C-4.08245451 267.66421454 -4.58371615 269.15695873 -5.08592319 270.6493845 C-5.74683119 272.61486665 -6.4034389 274.58179335 -7.0597086 276.54882908 C-7.5846793 278.11757786 -7.5846793 278.11757786 -8.12025547 279.71801853 C-8.93664309 282.02390386 -8.93664309 282.02390386 -8.8409586 284.12304783 C32.0790414 284.12304783 72.9990414 284.12304783 115.1590414 284.12304783 C113.27231566 277.20505343 111.35679647 270.42514015 109.07701015 263.64648533 C108.78645748 262.77487766 108.49590481 261.90327 108.19654751 261.00524998 C107.2497427 258.16843557 106.29834121 255.33318986 105.3465414 252.49804783 C104.67611431 250.49433723 104.00578716 248.49059319 103.33555508 246.48681736 C97.51708054 229.11219506 91.61301123 211.76699426 85.66619778 194.4359293 C83.73655151 188.81176801 81.81511902 183.18485327 79.89732265 177.55664158 C78.86023309 174.51604772 77.82235373 171.47572434 76.7840414 168.43554783 C76.53403378 167.70311863 76.28402615 166.97068943 76.02644253 166.21606541 C73.13939496 157.7669991 70.16377889 149.36078947 67.0340414 140.99804783 C61.66838105 126.62564176 57.49947143 111.82960363 53.1590414 97.12304783 C52.8290414 97.12304783 52.4990414 97.12304783 52.1590414 97.12304783 Z " fill="#7DC4E8" transform="translate(2284.840958595276,257.8769521713257)"/>
<path d="M0 0 C35.31 0 70.62 0 107 0 C107 123.42 107 246.84 107 374 C163.1 374 219.2 374 277 374 C270.09737583 393.55743516 270.09737583 393.55743516 266.5390625 402.67578125 C266.14480072 403.69189987 265.75053894 404.70801849 265.34432983 405.75492859 C264.52048873 407.87672609 263.69542379 409.9980488 262.86914062 412.11889648 C261.6313174 415.29628378 260.39735858 418.47515 259.1640625 421.65429688 C258.35178897 423.74487967 257.53929597 425.83537721 256.7265625 427.92578125 C256.1933287 429.29867058 256.1933287 429.29867058 255.64932251 430.69929504 C251.83160842 440.49330137 247.90453379 450.23866552 244 460 C163.48 460 82.96 460 0 460 C0 308.2 0 156.4 0 0 Z " fill="#6CB3E0" transform="translate(1827,258)"/>
<path d="M0 0 C0.33 0 0.66 0 1 0 C1 131.01 1 262.02 1 397 C-34.64 397 -70.28 397 -107 397 C-107 266.65 -107 136.3 -107 2 C-106.34 2 -105.68 2 -105 2 C-103.51171875 3.9921875 -103.51171875 3.9921875 -101.6875 6.875 C-90.42058465 24.1835946 -77.68375042 40.37360699 -64.58984375 56.32080078 C-60.93279821 60.78936874 -57.43134155 65.35602158 -54 70 C-50.00515229 66.15202169 -46.47665112 62.06822143 -43 57.75 C-42.15405273 56.70271729 -42.15405273 56.70271729 -41.29101562 55.63427734 C-29.31662469 40.73938429 -18.02385014 25.35867271 -6.99609375 9.75390625 C-6.53098389 9.09737061 -6.06587402 8.44083496 -5.58666992 7.7644043 C-4.71512538 6.53246216 -3.84664444 5.29834519 -2.98168945 4.06176758 C-2.01226731 2.69021476 -1.00980882 1.34209634 0 0 Z " fill="#62A9DB" transform="translate(1738,321)"/>
<path d="M0 0 C2.22401581 1.67279675 4.31739898 3.4182619 6.39453125 5.26953125 C7.06871094 5.85089844 7.74289062 6.43226563 8.4375 7.03125 C19.96363772 17.66561691 27.85722462 33.84689132 28.66796875 49.5703125 C29.96827874 93.97233633 -5.71465104 135.37932272 -31.03515625 169.15039062 C-32.12189489 170.61694712 -33.18841343 172.09862362 -34.23828125 173.59179688 C-34.76164062 174.32591797 -35.285 175.06003906 -35.82421875 175.81640625 C-36.28763672 176.47995117 -36.75105469 177.14349609 -37.22851562 177.82714844 C-37.68291016 178.30313477 -38.13730469 178.77912109 -38.60546875 179.26953125 C-39.59546875 179.26953125 -40.58546875 179.26953125 -41.60546875 179.26953125 C-43.11669922 177.71923828 -43.11669922 177.71923828 -44.72265625 175.52734375 C-45.32303711 174.7175708 -45.92341797 173.90779785 -46.54199219 173.07348633 C-47.18168945 172.18943115 -47.82138672 171.30537598 -48.48046875 170.39453125 C-49.14594727 169.48920654 -49.81142578 168.58388184 -50.49707031 167.65112305 C-51.87399075 165.77414413 -53.24634354 163.89380647 -54.61425781 162.01025391 C-56.43137171 159.50916016 -58.2618449 157.0186317 -60.09765625 154.53125 C-67.32834379 144.68787403 -74.12788701 134.62298052 -80.60546875 124.26953125 C-81.176604 123.36485107 -81.176604 123.36485107 -81.75927734 122.44189453 C-97.50176125 97.402395 -114.23635913 69.55191189 -107.54296875 38.89453125 C-104.35567051 28.31509532 -98.94848497 18.50842744 -91.60546875 10.26953125 C-91.02410156 9.59535156 -90.44273438 8.92117187 -89.84375 8.2265625 C-66.79051691 -16.75985575 -27.29719924 -18.12992393 0 0 Z M-77.60546875 24.26953125 C-87.11883208 35.52913336 -90.16345059 47.78346429 -89.60546875 62.26953125 C-89.33303464 64.27873278 -89.03396448 66.2877385 -88.60546875 68.26953125 C-88.27546875 68.26953125 -87.94546875 68.26953125 -87.60546875 68.26953125 C-87.5075 67.36332031 -87.40953125 66.45710938 -87.30859375 65.5234375 C-85.75816158 52.89276161 -82.20997875 42.45700208 -72.10546875 34.14453125 C-61.83598017 26.88026122 -50.81421599 24.06626697 -38.48046875 23.89453125 C-37.4853125 23.85714844 -36.49015625 23.81976563 -35.46484375 23.78125 C-28.15831492 23.69540306 -22.70580728 25.15809079 -16.60546875 29.26953125 C-15.23907533 30.90920335 -13.90033696 32.57280739 -12.60546875 34.26953125 C-10.93174606 35.00983167 -9.25414 35.74546629 -7.54296875 36.39453125 C-2.31074961 38.75746893 2.22168828 42.50093491 5.39453125 47.26953125 C7.28591058 52.94366924 7.17812165 58.27704065 4.58203125 63.70703125 C3.04573486 66.62069683 2.28144018 67.3449253 -0.60546875 69.26953125 C-0.27546875 66.95953125 0.05453125 64.64953125 0.39453125 62.26953125 C-7.57225353 60.62765676 -7.57225353 60.62765676 -15.109375 62.69140625 C-17.17403976 64.53127487 -17.17403976 64.53127487 -18.921875 66.5078125 C-20.69344265 68.36158747 -22.26722192 69.26157802 -24.60546875 70.26953125 C-25.28672615 79.29619183 -22.28152593 86.64552498 -17.60546875 94.26953125 C-16.90724258 95.92322482 -16.2304827 97.58680139 -15.60546875 99.26953125 C-4.61351152 93.66138981 3.20130526 84.16799246 7.26953125 72.45703125 C11.27477594 58.52467702 9.85527459 44.53234648 2.9609375 31.7109375 C-5.32691205 18.79346625 -16.89584086 11.19693822 -31.60546875 7.51953125 C-49.84724509 5.99938322 -64.88176415 10.86152657 -77.60546875 24.26953125 Z " fill="#61A9DB" transform="translate(1724.60546875,173.73046875)"/>
</svg>
